<svg version="1.2" preserveAspectRatio="xMidYMid meet" viewBox="3.7904976 12.575995199999998 59.903999999999996 22.176" zoomAndPan="magnify" xmlns:xlink="http://www.w3.org/1999/xlink" xmlns="http://www.w3.org/2000/svg" style="max-height: 500px" width="59.903999999999996" height="22.176"><defs><clipPath id="6813d0d0b7"><path d="M 51 19 L 63.148438 19 L 63.148438 29 L 51 29 Z M 51 19"/></clipPath><clipPath id="055b477a34"><path d="M 4.648438 17 L 15 17 L 15 28 L 4.648438 28 Z M 4.648438 17"/></clipPath><clipPath id="11dadf65ec"><path d="M 15 20 L 23 20 L 23 31.511719 L 15 31.511719 Z M 15 20"/></clipPath><clipPath id="83874bec05"><path d="M 56 13.511719 L 60 13.511719 L 60 19 L 56 19 Z M 56 13.511719"/></clipPath></defs><g id="3a6b8c7863"><g clip-path="url(#6813d0d0b7)" clip-rule="nonzero"><path d="M 58.863281 19.4375 C 58.902344 19.445312 58.941406 19.453125 58.984375 19.460938 C 60.070312 19.679688 61.046875 20.113281 61.894531 20.828125 C 61.917969 20.84375 61.941406 20.863281 61.964844 20.886719 C 62.503906 21.335938 63.050781 21.917969 63.128906 22.640625 C 63.175781 23.976562 62.453125 25.378906 61.554688 26.332031 C 60.691406 27.230469 59.5625 27.871094 58.320312 28.089844 C 58.242188 28.089844 58.167969 28.089844 58.09375 28.089844 C 58.003906 27.632812 57.957031 27.175781 57.914062 26.710938 C 57.90625 26.628906 57.898438 26.550781 57.890625 26.46875 C 57.875 26.300781 57.855469 26.132812 57.839844 25.964844 C 57.820312 25.75 57.796875 25.535156 57.777344 25.324219 C 57.761719 25.15625 57.742188 24.992188 57.726562 24.824219 C 57.71875 24.746094 57.710938 24.667969 57.703125 24.585938 C 57.664062 24.199219 57.628906 23.816406 57.640625 23.425781 C 57.695312 23.40625 57.753906 23.386719 57.808594 23.367188 C 58.75 23.066406 58.75 23.066406 59.414062 22.394531 C 59.496094 22.183594 59.527344 21.980469 59.46875 21.761719 C 59.3125 21.441406 58.957031 21.304688 58.636719 21.183594 C 58.441406 21.128906 58.246094 21.082031 58.046875 21.050781 C 58 21.042969 57.957031 21.035156 57.910156 21.027344 C 56.839844 20.878906 55.503906 20.964844 54.597656 21.609375 C 54.4375 21.742188 54.355469 21.882812 54.292969 22.074219 C 54.289062 22.335938 54.375 22.539062 54.546875 22.730469 C 54.710938 22.878906 54.890625 22.976562 55.085938 23.078125 C 55.117188 23.089844 55.144531 23.105469 55.171875 23.121094 C 55.367188 23.214844 55.566406 23.28125 55.773438 23.34375 C 55.828125 23.359375 55.878906 23.375 55.933594 23.390625 C 55.972656 23.402344 56.015625 23.414062 56.054688 23.425781 C 56.050781 23.476562 56.046875 23.53125 56.042969 23.582031 C 56.003906 24.066406 55.96875 24.550781 55.929688 25.035156 C 55.910156 25.285156 55.894531 25.53125 55.875 25.78125 C 55.855469 26.023438 55.835938 26.261719 55.816406 26.503906 C 55.8125 26.59375 55.804688 26.6875 55.796875 26.777344 C 55.785156 26.90625 55.777344 27.035156 55.765625 27.164062 C 55.765625 27.199219 55.761719 27.238281 55.757812 27.277344 C 55.75 27.382812 55.742188 27.492188 55.738281 27.597656 C 55.734375 27.636719 55.734375 27.679688 55.730469 27.71875 C 55.730469 27.761719 55.730469 27.800781 55.726562 27.839844 C 55.726562 27.878906 55.726562 27.914062 55.722656 27.953125 C 55.730469 28.0625 55.730469 28.0625 55.875 28.15625 C 55.917969 28.179688 55.964844 28.203125 56.011719 28.226562 C 56.011719 28.253906 56.011719 28.285156 56.011719 28.316406 C 54.898438 27.996094 53.773438 27.304688 52.9375 26.519531 C 52.847656 26.4375 52.757812 26.363281 52.664062 26.285156 C 51.820312 25.550781 51.246094 24.523438 51.15625 23.414062 C 51.109375 22.582031 51.277344 21.746094 51.84375 21.101562 C 51.949219 20.992188 52.054688 20.886719 52.160156 20.78125 C 52.191406 20.75 52.222656 20.722656 52.253906 20.691406 C 52.710938 20.265625 53.351562 19.917969 53.972656 19.792969 C 54.058594 19.761719 54.144531 19.726562 54.226562 19.691406 C 54.617188 19.542969 55.011719 19.460938 55.421875 19.390625 C 55.453125 19.386719 55.480469 19.378906 55.511719 19.375 C 56.582031 19.195312 57.800781 19.226562 58.863281 19.4375 Z M 58.863281 19.4375" style="stroke:none;fill-rule:nonzero;fill:#e38653;fill-opacity:1;"/></g><g clip-path="url(#055b477a34)" clip-rule="nonzero"><path d="M 6.4375 17.597656 C 6.765625 17.832031 7.050781 18.101562 7.335938 18.386719 C 7.398438 18.449219 7.464844 18.515625 7.527344 18.578125 C 7.738281 18.789062 7.941406 19 8.136719 19.222656 C 8.238281 19.335938 8.34375 19.441406 8.453125 19.546875 C 8.625 19.714844 8.785156 19.882812 8.941406 20.0625 C 9.09375 20.238281 9.261719 20.394531 9.425781 20.558594 C 9.910156 20.148438 10.367188 19.722656 10.8125 19.273438 C 11.128906 18.957031 11.441406 18.648438 11.78125 18.359375 C 11.851562 18.292969 11.921875 18.230469 11.992188 18.164062 C 12.417969 17.78125 12.847656 17.433594 13.4375 17.441406 C 13.738281 17.480469 13.972656 17.644531 14.179688 17.859375 C 14.363281 18.148438 14.375 18.480469 14.378906 18.816406 C 14.382812 18.855469 14.382812 18.894531 14.382812 18.933594 C 14.386719 19.066406 14.386719 19.199219 14.390625 19.332031 C 14.390625 19.402344 14.390625 19.402344 14.390625 19.472656 C 14.433594 21.816406 14.46875 24.175781 14.320312 26.515625 C 14.316406 26.59375 14.316406 26.59375 14.3125 26.671875 C 14.292969 26.972656 14.269531 27.234375 14.050781 27.460938 C 14.003906 27.492188 14.003906 27.492188 13.957031 27.523438 C 13.925781 27.546875 13.894531 27.566406 13.863281 27.589844 C 13.605469 27.734375 13.289062 27.714844 13.003906 27.6875 C 12.742188 27.605469 12.5 27.484375 12.371094 27.238281 C 12.085938 26.460938 12.128906 25.550781 12.125 24.734375 C 12.125 24.636719 12.121094 24.535156 12.121094 24.4375 C 12.121094 24.179688 12.117188 23.921875 12.117188 23.664062 C 12.113281 23.398438 12.113281 23.132812 12.109375 22.871094 C 12.105469 22.351562 12.101562 21.835938 12.097656 21.320312 C 12.078125 21.335938 12.0625 21.355469 12.042969 21.375 C 11.851562 21.566406 11.65625 21.757812 11.464844 21.949219 C 11.394531 22.023438 11.320312 22.09375 11.25 22.164062 C 10.117188 23.300781 10.117188 23.300781 9.675781 23.316406 C 9.171875 23.304688 8.816406 23.03125 8.464844 22.695312 C 8.367188 22.601562 8.269531 22.511719 8.167969 22.425781 C 7.945312 22.234375 7.730469 22.03125 7.519531 21.832031 C 7.472656 21.789062 7.472656 21.789062 7.425781 21.746094 C 7.386719 21.710938 7.386719 21.710938 7.347656 21.671875 C 7.269531 21.601562 7.191406 21.535156 7.113281 21.472656 C 7.070312 21.4375 7.027344 21.402344 6.984375 21.363281 C 6.980469 21.414062 6.980469 21.460938 6.980469 21.511719 C 6.976562 21.972656 6.972656 22.4375 6.96875 22.898438 C 6.964844 23.136719 6.960938 23.375 6.960938 23.613281 C 6.925781 27.0625 6.925781 27.0625 6.726562 27.339844 C 6.636719 27.425781 6.546875 27.488281 6.4375 27.550781 C 6.398438 27.578125 6.398438 27.578125 6.355469 27.601562 C 6.046875 27.746094 5.644531 27.738281 5.320312 27.652344 C 5.109375 27.570312 4.949219 27.460938 4.808594 27.285156 C 4.722656 27.070312 4.699219 26.867188 4.691406 26.640625 C 4.6875 26.605469 4.6875 26.570312 4.6875 26.535156 C 4.667969 26.167969 4.667969 25.800781 4.667969 25.433594 C 4.667969 25.359375 4.667969 25.285156 4.667969 25.214844 C 4.667969 25.015625 4.667969 24.820312 4.667969 24.625 C 4.667969 24.417969 4.667969 24.210938 4.667969 24 C 4.667969 23.65625 4.667969 23.308594 4.667969 22.960938 C 4.667969 22.558594 4.667969 22.160156 4.667969 21.757812 C 4.667969 21.414062 4.667969 21.066406 4.667969 20.722656 C 4.667969 20.515625 4.667969 20.3125 4.667969 20.105469 C 4.667969 19.914062 4.667969 19.71875 4.667969 19.527344 C 4.667969 19.457031 4.667969 19.386719 4.667969 19.316406 C 4.667969 18.082031 4.667969 18.082031 4.910156 17.804688 C 5.363281 17.382812 5.894531 17.277344 6.4375 17.597656 Z M 6.4375 17.597656" style="stroke:none;fill-rule:nonzero;fill:#313131;fill-opacity:1;"/></g><g clip-path="url(#11dadf65ec)" clip-rule="nonzero"><path d="M 17.199219 20.914062 C 17.289062 20.96875 17.363281 21.023438 17.441406 21.09375 C 17.476562 21.128906 17.511719 21.160156 17.546875 21.195312 C 17.84375 21.695312 17.761719 22.433594 17.777344 22.988281 C 17.789062 23.445312 17.808594 23.902344 17.839844 24.359375 C 17.847656 24.421875 17.847656 24.421875 17.851562 24.488281 C 17.894531 25.007812 17.976562 25.480469 18.386719 25.832031 C 18.664062 26.007812 19.046875 25.9375 19.355469 25.878906 C 19.625 25.808594 19.835938 25.636719 19.976562 25.398438 C 20.265625 24.679688 20.21875 23.828125 20.226562 23.066406 C 20.242188 21.539062 20.242188 21.539062 20.628906 21.113281 C 20.863281 20.898438 21.148438 20.847656 21.457031 20.855469 C 21.6875 20.886719 21.859375 20.992188 22.027344 21.148438 C 22.355469 21.691406 22.347656 22.386719 22.378906 23 C 22.378906 23.035156 22.382812 23.070312 22.382812 23.105469 C 22.429688 23.972656 22.441406 24.835938 22.449219 25.703125 C 22.453125 25.925781 22.457031 26.144531 22.460938 26.367188 C 22.460938 26.539062 22.464844 26.714844 22.464844 26.886719 C 22.464844 26.96875 22.46875 27.050781 22.46875 27.132812 C 22.488281 28.367188 22.375 29.503906 21.515625 30.46875 C 21.488281 30.496094 21.460938 30.527344 21.433594 30.558594 C 20.867188 31.179688 20.019531 31.46875 19.191406 31.511719 C 18.207031 31.542969 17.195312 31.332031 16.449219 30.664062 C 16.042969 30.28125 15.730469 29.875 15.703125 29.296875 C 15.734375 28.953125 15.832031 28.695312 16.082031 28.449219 C 16.339844 28.269531 16.585938 28.246094 16.898438 28.269531 C 17.203125 28.335938 17.394531 28.507812 17.625 28.710938 C 18.050781 29.078125 18.453125 29.285156 19.027344 29.269531 C 19.375 29.234375 19.582031 29.046875 19.800781 28.789062 C 19.992188 28.523438 20.164062 28.1875 20.160156 27.855469 C 20.160156 27.820312 20.160156 27.785156 20.160156 27.746094 C 20.160156 27.710938 20.160156 27.671875 20.160156 27.632812 C 20.160156 27.597656 20.160156 27.558594 20.160156 27.519531 C 20.15625 27.425781 20.15625 27.332031 20.15625 27.238281 C 20.128906 27.257812 20.101562 27.277344 20.074219 27.300781 C 19.433594 27.761719 18.773438 27.960938 17.976562 27.851562 C 17.285156 27.738281 16.613281 27.46875 16.175781 26.902344 C 15.59375 26.039062 15.53125 25.082031 15.53125 24.074219 C 15.53125 24.015625 15.53125 23.960938 15.53125 23.90625 C 15.53125 23.789062 15.53125 23.671875 15.53125 23.554688 C 15.53125 23.378906 15.527344 23.203125 15.527344 23.027344 C 15.527344 22.914062 15.527344 22.800781 15.527344 22.683594 C 15.527344 22.632812 15.527344 22.582031 15.527344 22.527344 C 15.53125 21.476562 15.53125 21.476562 15.871094 21.121094 C 16.207031 20.820312 16.78125 20.765625 17.199219 20.914062 Z M 17.199219 20.914062" style="stroke:none;fill-rule:nonzero;fill:#313131;fill-opacity:1;"/></g><path d="M 25.671875 17.410156 C 25.714844 17.410156 25.761719 17.410156 25.808594 17.410156 C 25.90625 17.410156 26 17.410156 26.097656 17.410156 C 26.242188 17.410156 26.382812 17.410156 26.527344 17.410156 C 26.964844 17.40625 27.398438 17.414062 27.832031 17.457031 C 27.882812 17.460938 27.882812 17.460938 27.933594 17.46875 C 28.746094 17.5625 29.457031 17.972656 30 18.574219 C 30.710938 19.464844 30.980469 20.507812 30.851562 21.628906 C 30.746094 22.445312 30.410156 23.179688 29.796875 23.742188 C 29.757812 23.78125 29.714844 23.824219 29.671875 23.867188 C 28.851562 24.546875 27.710938 24.699219 26.683594 24.6875 C 26.617188 24.6875 26.550781 24.6875 26.480469 24.6875 C 26.320312 24.6875 26.15625 24.683594 25.996094 24.683594 C 25.996094 24.738281 25.992188 24.792969 25.992188 24.851562 C 25.988281 25.0625 25.984375 25.273438 25.980469 25.480469 C 25.980469 25.570312 25.976562 25.664062 25.976562 25.753906 C 25.976562 25.882812 25.972656 26.015625 25.96875 26.144531 C 25.96875 26.183594 25.96875 26.226562 25.96875 26.265625 C 25.957031 26.6875 25.917969 27.164062 25.613281 27.488281 C 25.324219 27.738281 25.039062 27.753906 24.667969 27.746094 C 24.390625 27.722656 24.226562 27.640625 24.03125 27.441406 C 23.46875 26.5625 23.726562 24.929688 23.726562 23.917969 C 23.726562 23.734375 23.726562 23.550781 23.726562 23.367188 C 23.726562 23.058594 23.726562 22.75 23.726562 22.441406 C 23.726562 22.085938 23.726562 21.730469 23.726562 21.375 C 23.726562 21.066406 23.726562 20.757812 23.726562 20.449219 C 23.726562 20.269531 23.726562 20.085938 23.726562 19.902344 C 23.726562 19.730469 23.726562 19.558594 23.726562 19.386719 C 23.726562 19.324219 23.726562 19.261719 23.726562 19.199219 C 23.726562 18.066406 23.726562 18.066406 24.074219 17.703125 C 24.492188 17.375 25.164062 17.410156 25.671875 17.410156 Z M 25.996094 19.660156 C 25.996094 20.578125 25.996094 21.496094 25.996094 22.441406 C 27.253906 22.457031 27.253906 22.457031 28.324219 21.890625 C 28.632812 21.554688 28.683594 21.203125 28.679688 20.761719 C 28.65625 20.480469 28.5625 20.289062 28.382812 20.074219 C 27.707031 19.527344 26.832031 19.523438 25.996094 19.660156 Z M 25.996094 19.660156" style="stroke:none;fill-rule:nonzero;fill:#313131;fill-opacity:1;"/><path d="M 34.464844 20.773438 C 35.363281 20.738281 36.246094 21.128906 36.921875 21.691406 C 37.238281 21.988281 37.46875 22.34375 37.503906 22.78125 C 37.511719 23.046875 37.503906 23.285156 37.359375 23.515625 C 37.078125 23.792969 36.695312 23.941406 36.34375 24.109375 C 36.28125 24.136719 36.21875 24.167969 36.15625 24.195312 C 35.722656 24.402344 35.285156 24.59375 34.84375 24.785156 C 34.214844 25.007812 34.214844 25.007812 33.738281 25.398438 C 34.355469 25.65625 34.753906 25.644531 35.390625 25.402344 C 35.714844 25.277344 36.007812 25.289062 36.328125 25.429688 C 36.589844 25.570312 36.773438 25.789062 36.859375 26.074219 C 36.898438 26.441406 36.914062 26.816406 36.714844 27.140625 C 36.363281 27.566406 35.855469 27.746094 35.320312 27.820312 C 34.109375 27.886719 33.101562 27.804688 32.152344 26.96875 C 32.121094 26.941406 32.089844 26.914062 32.058594 26.886719 C 31.429688 26.3125 31.0625 25.390625 31.011719 24.550781 C 30.984375 23.617188 31.257812 22.785156 31.835938 22.035156 C 31.859375 22.003906 31.886719 21.972656 31.910156 21.9375 C 32.46875 21.265625 33.28125 20.894531 34.144531 20.796875 C 34.25 20.789062 34.359375 20.78125 34.464844 20.773438 Z M 33.554688 23.425781 C 33.367188 23.613281 33.242188 23.839844 33.234375 24.109375 C 33.238281 24.152344 33.238281 24.191406 33.238281 24.234375 C 33.957031 23.957031 34.664062 23.652344 35.367188 23.335938 C 35.234375 23.199219 35.144531 23.128906 34.960938 23.078125 C 34.902344 23.0625 34.902344 23.0625 34.84375 23.046875 C 34.390625 22.953125 33.914062 23.164062 33.554688 23.425781 Z M 33.554688 23.425781" style="stroke:none;fill-rule:nonzero;fill:#313131;fill-opacity:1;"/><path d="M 43.605469 21.140625 C 43.84375 21.34375 44.023438 21.589844 44.074219 21.90625 C 44.089844 22.226562 44.007812 22.5625 43.789062 22.808594 C 43.550781 23.023438 43.390625 23.082031 43.0625 23.066406 C 42.914062 23.035156 42.914062 23.035156 42.761719 22.988281 C 42.679688 22.964844 42.679688 22.964844 42.597656 22.941406 C 42.488281 22.90625 42.382812 22.871094 42.273438 22.832031 C 41.882812 22.699219 41.601562 22.679688 41.21875 22.855469 C 40.984375 22.984375 40.746094 23.140625 40.617188 23.382812 C 40.570312 23.640625 40.566406 23.890625 40.5625 24.152344 C 40.558594 24.242188 40.558594 24.332031 40.558594 24.421875 C 40.554688 24.5625 40.554688 24.703125 40.550781 24.84375 C 40.542969 25.347656 40.53125 25.855469 40.488281 26.359375 C 40.484375 26.421875 40.484375 26.421875 40.480469 26.484375 C 40.453125 26.792969 40.410156 27.136719 40.222656 27.390625 C 39.878906 27.660156 39.605469 27.761719 39.164062 27.746094 C 38.898438 27.714844 38.710938 27.605469 38.523438 27.421875 C 37.679688 26.332031 38.121094 23.4375 38.277344 22.148438 C 38.34375 21.671875 38.476562 21.316406 38.863281 21.015625 C 39.097656 20.855469 39.347656 20.84375 39.621094 20.871094 C 39.972656 20.945312 40.191406 21.164062 40.4375 21.410156 C 40.472656 21.382812 40.507812 21.355469 40.546875 21.328125 C 41.476562 20.652344 42.597656 20.5 43.605469 21.140625 Z M 43.605469 21.140625" style="stroke:none;fill-rule:nonzero;fill:#313131;fill-opacity:1;"/><path d="M 50.417969 21.363281 C 50.59375 21.59375 50.613281 21.890625 50.578125 22.171875 C 50.492188 22.492188 50.3125 22.703125 50.035156 22.890625 C 49.730469 23.03125 49.339844 22.996094 49.019531 22.902344 C 48.988281 22.890625 48.957031 22.878906 48.925781 22.867188 C 48.554688 22.730469 48.15625 22.710938 47.785156 22.839844 C 47.53125 22.957031 47.285156 23.117188 47.183594 23.382812 C 47.132812 23.699219 47.125 24.023438 47.117188 24.34375 C 47.113281 24.441406 47.109375 24.539062 47.109375 24.640625 C 47.101562 24.792969 47.097656 24.945312 47.09375 25.097656 C 47.078125 25.609375 47.058594 26.117188 46.980469 26.621094 C 46.976562 26.660156 46.972656 26.695312 46.964844 26.730469 C 46.910156 27.058594 46.8125 27.328125 46.578125 27.570312 C 46.304688 27.730469 46.078125 27.808594 45.757812 27.761719 C 45.5 27.691406 45.308594 27.539062 45.128906 27.351562 C 44.933594 26.933594 44.894531 26.449219 44.863281 25.992188 C 44.863281 25.941406 44.859375 25.886719 44.855469 25.828125 C 44.640625 22.15625 44.640625 22.15625 45.140625 21.335938 C 45.359375 21.09375 45.59375 20.9375 45.929688 20.898438 C 46.308594 20.9375 46.5625 21.027344 46.828125 21.300781 C 46.917969 21.382812 46.917969 21.382812 47.089844 21.363281 C 47.203125 21.292969 47.203125 21.292969 47.316406 21.195312 C 48.226562 20.519531 49.5625 20.691406 50.417969 21.363281 Z M 50.417969 21.363281" style="stroke:none;fill-rule:nonzero;fill:#313131;fill-opacity:1;"/><path d="M 53.835938 19.839844 C 53.835938 19.871094 53.835938 19.898438 53.835938 19.929688 C 53.773438 19.984375 53.707031 20.035156 53.640625 20.085938 C 53.511719 20.199219 53.410156 20.332031 53.308594 20.46875 C 53.285156 20.496094 53.261719 20.527344 53.238281 20.558594 C 52.875 21.058594 52.558594 21.625 52.386719 22.214844 C 52.375 22.265625 52.375 22.265625 52.359375 22.3125 C 52.289062 22.585938 52.285156 22.851562 52.285156 23.132812 C 52.285156 23.175781 52.285156 23.21875 52.285156 23.265625 C 52.289062 24.40625 52.859375 25.382812 53.589844 26.222656 C 53.644531 26.285156 53.699219 26.347656 53.75 26.410156 C 53.898438 26.585938 54.058594 26.738281 54.234375 26.882812 C 54.347656 26.980469 54.453125 27.078125 54.5625 27.179688 C 54.980469 27.558594 55.4375 27.90625 55.9375 28.175781 C 55.960938 28.191406 55.984375 28.207031 56.011719 28.226562 C 56.011719 28.253906 56.011719 28.285156 56.011719 28.316406 C 54.898438 27.996094 53.773438 27.304688 52.9375 26.519531 C 52.847656 26.4375 52.757812 26.363281 52.664062 26.285156 C 51.820312 25.550781 51.246094 24.523438 51.15625 23.414062 C 51.109375 22.582031 51.277344 21.746094 51.84375 21.101562 C 51.949219 20.992188 52.054688 20.886719 52.160156 20.78125 C 52.191406 20.75 52.222656 20.722656 52.253906 20.691406 C 52.601562 20.367188 53.324219 19.839844 53.835938 19.839844 Z M 53.835938 19.839844" style="stroke:none;fill-rule:nonzero;fill:#b66a43;fill-opacity:1;"/><g clip-path="url(#83874bec05)" clip-rule="nonzero"><path d="M 58.96875 13.640625 C 59.007812 13.671875 59.046875 13.707031 59.089844 13.742188 C 59.125 13.769531 59.164062 13.800781 59.203125 13.832031 C 59.792969 14.535156 59.828125 15.507812 59.757812 16.375 C 59.6875 17.070312 59.554688 17.785156 59.019531 18.285156 C 58.714844 18.484375 58.457031 18.570312 58.09375 18.539062 C 57.769531 18.453125 57.546875 18.328125 57.367188 18.046875 C 56.855469 17.164062 56.890625 15.960938 57.140625 14.996094 C 57.304688 14.441406 57.515625 13.902344 58.039062 13.605469 C 58.34375 13.464844 58.675781 13.488281 58.96875 13.640625 Z M 57.910156 14.546875 C 57.601562 15.054688 57.582031 15.710938 57.578125 16.285156 C 57.578125 16.332031 57.574219 16.378906 57.574219 16.425781 C 57.578125 16.90625 57.644531 17.367188 57.992188 17.722656 C 58.140625 17.804688 58.285156 17.828125 58.453125 17.820312 C 58.710938 17.738281 58.796875 17.625 58.921875 17.390625 C 59.289062 16.585938 59.261719 15.53125 58.960938 14.707031 C 58.867188 14.511719 58.742188 14.332031 58.546875 14.234375 C 58.253906 14.179688 58.089844 14.339844 57.910156 14.546875 Z M 57.910156 14.546875" style="stroke:none;fill-rule:nonzero;fill:#e48653;fill-opacity:1;"/></g><path d="M 55.742188 16.011719 C 56.011719 16.230469 56.132812 16.5 56.191406 16.835938 C 56.203125 16.972656 56.207031 17.109375 56.207031 17.246094 C 56.207031 17.277344 56.210938 17.3125 56.210938 17.347656 C 56.207031 17.652344 56.144531 17.902344 55.9375 18.136719 C 55.769531 18.234375 55.667969 18.265625 55.476562 18.253906 C 55.273438 18.195312 55.167969 18.042969 55.058594 17.867188 C 54.828125 17.378906 54.734375 16.8125 54.921875 16.296875 C 55.117188 15.980469 55.390625 15.828125 55.742188 16.011719 Z M 55.742188 16.011719" style="stroke:none;fill-rule:nonzero;fill:#313131;fill-opacity:1;"/><path d="M 58.40625 16.050781 C 58.546875 16.074219 58.546875 16.074219 58.648438 16.160156 C 58.769531 16.375 58.796875 16.570312 58.75 16.808594 C 58.691406 17.003906 58.632812 17.171875 58.453125 17.285156 C 58.316406 17.285156 58.316406 17.285156 58.183594 17.238281 C 58.007812 17.050781 57.996094 16.859375 58 16.609375 C 58.054688 16.355469 58.117188 16.097656 58.40625 16.050781 Z M 58.40625 16.050781" style="stroke:none;fill-rule:nonzero;fill:#313131;fill-opacity:1;"/><g style="fill:#323232;fill-opacity:1;"><g transform="translate(26.382796, 33.412566)"><path d="M 2.359375 -0.015625 C 2.140625 0.140625 1.816406 0.21875 1.390625 0.21875 C 1.273438 0.21875 1.148438 0.203125 1.015625 0.171875 C 0.847656 0.128906 0.722656 0.078125 0.640625 0.015625 L 0.625 0.015625 C 0.5625 0.015625 0.507812 -0.00390625 0.46875 -0.046875 C 0.425781 -0.0976562 0.40625 -0.15625 0.40625 -0.21875 C 0.40625 -0.363281 0.410156 -0.585938 0.421875 -0.890625 C 0.429688 -1.203125 0.4375 -1.4375 0.4375 -1.59375 C 0.4375 -1.769531 0.429688 -2.023438 0.421875 -2.359375 C 0.421875 -2.703125 0.421875 -2.957031 0.421875 -3.125 C 0.421875 -3.1875 0.453125 -3.25 0.515625 -3.3125 C 0.578125 -3.382812 0.640625 -3.421875 0.703125 -3.421875 C 0.734375 -3.421875 0.847656 -3.367188 1.046875 -3.265625 C 1.273438 -3.160156 1.40625 -3.101562 1.4375 -3.09375 C 1.851562 -2.945312 2.207031 -2.726562 2.5 -2.4375 C 2.851562 -2.082031 3.03125 -1.703125 3.03125 -1.296875 C 3.03125 -1.046875 2.96875 -0.800781 2.84375 -0.5625 C 2.726562 -0.332031 2.566406 -0.148438 2.359375 -0.015625 Z M 1.90625 -2.34375 C 1.75 -2.4375 1.40625 -2.601562 0.875 -2.84375 L 0.875 -2.21875 L 0.890625 -1.578125 L 0.84375 -0.375 C 0.851562 -0.375 0.867188 -0.367188 0.890625 -0.359375 C 1.023438 -0.265625 1.191406 -0.21875 1.390625 -0.21875 C 1.722656 -0.21875 1.960938 -0.269531 2.109375 -0.375 C 2.253906 -0.46875 2.367188 -0.597656 2.453125 -0.765625 C 2.535156 -0.929688 2.578125 -1.101562 2.578125 -1.28125 C 2.578125 -1.695312 2.351562 -2.050781 1.90625 -2.34375 Z M 1.90625 -2.34375" style="stroke:none"/></g></g><g style="fill:#323232;fill-opacity:1;"><g transform="translate(29.629394, 33.412566)"><path d="M 1.125 0.125 C 0.882812 0.125 0.675781 0.0351562 0.5 -0.140625 C 0.300781 -0.347656 0.195312 -0.617188 0.1875 -0.953125 C 0.175781 -1.285156 0.257812 -1.578125 0.4375 -1.828125 C 0.632812 -2.128906 0.921875 -2.28125 1.296875 -2.28125 C 1.585938 -2.28125 1.804688 -2.144531 1.953125 -1.875 C 2.078125 -1.65625 2.132812 -1.394531 2.125 -1.09375 C 2.125 -0.769531 2.039062 -0.492188 1.875 -0.265625 C 1.6875 -0.00390625 1.4375 0.125 1.125 0.125 Z M 1.265625 -1.828125 C 1.046875 -1.828125 0.878906 -1.726562 0.765625 -1.53125 C 0.660156 -1.363281 0.609375 -1.171875 0.609375 -0.953125 C 0.609375 -0.742188 0.664062 -0.582031 0.78125 -0.46875 C 0.882812 -0.363281 1 -0.3125 1.125 -0.3125 C 1.28125 -0.3125 1.410156 -0.367188 1.515625 -0.484375 C 1.640625 -0.609375 1.707031 -0.773438 1.71875 -0.984375 C 1.738281 -1.546875 1.585938 -1.828125 1.265625 -1.828125 Z M 1.265625 -1.828125" style="stroke:none"/></g></g><g style="fill:#323232;fill-opacity:1;"><g transform="translate(31.99515, 33.412566)"><path d="M 2.109375 -0.953125 L 2.0625 -0.203125 C 2.050781 0.0859375 2.019531 0.328125 1.96875 0.515625 C 1.90625 0.742188 1.800781 0.914062 1.65625 1.03125 C 1.476562 1.164062 1.222656 1.234375 0.890625 1.234375 C 0.703125 1.234375 0.539062 1.222656 0.40625 1.203125 C 0.21875 1.160156 0.125 1.082031 0.125 0.96875 C 0.125 0.84375 0.1875 0.78125 0.3125 0.78125 C 0.363281 0.78125 0.453125 0.789062 0.578125 0.8125 C 0.703125 0.84375 0.835938 0.851562 0.984375 0.84375 C 1.265625 0.84375 1.460938 0.707031 1.578125 0.4375 C 1.640625 0.257812 1.675781 -0.015625 1.6875 -0.390625 C 1.601562 -0.242188 1.503906 -0.128906 1.390625 -0.046875 C 1.285156 0.0234375 1.164062 0.0625 1.03125 0.0625 C 0.757812 0.0625 0.539062 -0.0234375 0.375 -0.203125 C 0.207031 -0.390625 0.125 -0.628906 0.125 -0.921875 C 0.125 -1.316406 0.238281 -1.632812 0.46875 -1.875 C 0.707031 -2.125 1.03125 -2.25 1.4375 -2.25 C 1.570312 -2.25 1.679688 -2.226562 1.765625 -2.1875 C 1.859375 -2.15625 1.929688 -2.109375 1.984375 -2.046875 C 2.140625 -2.035156 2.21875 -1.945312 2.21875 -1.78125 C 2.21875 -1.675781 2.203125 -1.535156 2.171875 -1.359375 C 2.140625 -1.160156 2.117188 -1.023438 2.109375 -0.953125 Z M 1.40625 -1.90625 C 1.125 -1.90625 0.910156 -1.804688 0.765625 -1.609375 C 0.628906 -1.429688 0.5625 -1.210938 0.5625 -0.953125 C 0.5625 -0.742188 0.597656 -0.582031 0.671875 -0.46875 C 0.753906 -0.363281 0.878906 -0.3125 1.046875 -0.3125 C 1.191406 -0.3125 1.332031 -0.394531 1.46875 -0.5625 C 1.59375 -0.71875 1.664062 -0.867188 1.6875 -1.015625 C 1.71875 -1.171875 1.75 -1.421875 1.78125 -1.765625 C 1.726562 -1.804688 1.671875 -1.835938 1.609375 -1.859375 C 1.546875 -1.890625 1.476562 -1.90625 1.40625 -1.90625 Z M 1.40625 -1.90625" style="stroke:none"/></g></g><g style="fill:#323232;fill-opacity:1;"><g transform="translate(34.382872, 33.412566)"><path d="M 1.78125 -1.6875 C 1.707031 -1.6875 1.65625 -1.710938 1.625 -1.765625 C 1.601562 -1.804688 1.582031 -1.890625 1.5625 -2.015625 C 1.445312 -1.984375 1.28125 -1.929688 1.0625 -1.859375 C 0.820312 -1.765625 0.703125 -1.648438 0.703125 -1.515625 C 0.742188 -1.492188 0.785156 -1.476562 0.828125 -1.46875 C 1.160156 -1.414062 1.410156 -1.332031 1.578125 -1.21875 C 1.816406 -1.070312 1.9375 -0.851562 1.9375 -0.5625 C 1.9375 -0.320312 1.832031 -0.140625 1.625 -0.015625 C 1.457031 0.078125 1.242188 0.125 0.984375 0.125 C 0.785156 0.125 0.597656 0.09375 0.421875 0.03125 C 0.203125 -0.0507812 0.09375 -0.164062 0.09375 -0.3125 C 0.09375 -0.363281 0.113281 -0.410156 0.15625 -0.453125 C 0.207031 -0.503906 0.257812 -0.53125 0.3125 -0.53125 C 0.363281 -0.53125 0.425781 -0.492188 0.5 -0.421875 C 0.53125 -0.390625 0.609375 -0.363281 0.734375 -0.34375 C 0.828125 -0.320312 0.910156 -0.3125 0.984375 -0.3125 C 1.097656 -0.3125 1.203125 -0.328125 1.296875 -0.359375 C 1.429688 -0.398438 1.5 -0.46875 1.5 -0.5625 C 1.5 -0.757812 1.363281 -0.894531 1.09375 -0.96875 L 0.859375 -1.015625 C 0.660156 -1.054688 0.523438 -1.101562 0.453125 -1.15625 C 0.328125 -1.238281 0.265625 -1.363281 0.265625 -1.53125 C 0.265625 -1.84375 0.410156 -2.0625 0.703125 -2.1875 C 0.785156 -2.226562 0.921875 -2.273438 1.109375 -2.328125 C 1.304688 -2.378906 1.445312 -2.425781 1.53125 -2.46875 C 1.59375 -2.5 1.660156 -2.515625 1.734375 -2.515625 C 1.796875 -2.515625 1.847656 -2.492188 1.890625 -2.453125 C 1.929688 -2.410156 1.953125 -2.351562 1.953125 -2.28125 C 1.953125 -2.238281 1.957031 -2.175781 1.96875 -2.09375 C 1.988281 -2.019531 2 -1.957031 2 -1.90625 C 2 -1.84375 1.976562 -1.789062 1.9375 -1.75 C 1.90625 -1.707031 1.851562 -1.6875 1.78125 -1.6875 Z M 1.78125 -1.6875" style="stroke:none"/></g></g><g style="fill:#323232;fill-opacity:1;"><g transform="translate(36.572898, 33.412566)"><path d="" style="stroke:none"/></g></g><g style="fill:#f58d4b;fill-opacity:1;"><g transform="translate(37.917306, 33.412566)"><path d="M 0.859375 -1.734375 L 0.828125 -0.640625 C 0.828125 -0.523438 0.820312 -0.351562 0.8125 -0.125 C 0.800781 0.0195312 0.726562 0.09375 0.59375 0.09375 C 0.445312 0.09375 0.375 0.0195312 0.375 -0.125 C 0.375 -0.300781 0.382812 -0.566406 0.40625 -0.921875 C 0.425781 -1.285156 0.4375 -1.554688 0.4375 -1.734375 C 0.4375 -1.960938 0.4375 -2.222656 0.4375 -2.515625 C 0.445312 -2.816406 0.453125 -3.082031 0.453125 -3.3125 C 0.453125 -3.457031 0.523438 -3.53125 0.671875 -3.53125 C 0.816406 -3.53125 0.890625 -3.457031 0.890625 -3.3125 C 0.890625 -3.082031 0.882812 -2.816406 0.875 -2.515625 C 0.863281 -2.222656 0.859375 -1.960938 0.859375 -1.734375 Z M 0.859375 -1.734375" style="stroke:none"/></g></g><g style="fill:#f58d4b;fill-opacity:1;"><g transform="translate(39.149608, 33.412566)"><path d="M 1.125 0.125 C 0.882812 0.125 0.675781 0.0351562 0.5 -0.140625 C 0.300781 -0.347656 0.195312 -0.617188 0.1875 -0.953125 C 0.175781 -1.285156 0.257812 -1.578125 0.4375 -1.828125 C 0.632812 -2.128906 0.921875 -2.28125 1.296875 -2.28125 C 1.585938 -2.28125 1.804688 -2.144531 1.953125 -1.875 C 2.078125 -1.65625 2.132812 -1.394531 2.125 -1.09375 C 2.125 -0.769531 2.039062 -0.492188 1.875 -0.265625 C 1.6875 -0.00390625 1.4375 0.125 1.125 0.125 Z M 1.265625 -1.828125 C 1.046875 -1.828125 0.878906 -1.726562 0.765625 -1.53125 C 0.660156 -1.363281 0.609375 -1.171875 0.609375 -0.953125 C 0.609375 -0.742188 0.664062 -0.582031 0.78125 -0.46875 C 0.882812 -0.363281 1 -0.3125 1.125 -0.3125 C 1.28125 -0.3125 1.410156 -0.367188 1.515625 -0.484375 C 1.640625 -0.609375 1.707031 -0.773438 1.71875 -0.984375 C 1.738281 -1.546875 1.585938 -1.828125 1.265625 -1.828125 Z M 1.265625 -1.828125" style="stroke:none"/></g></g><g style="fill:#f58d4b;fill-opacity:1;"><g transform="translate(41.515364, 33.412566)"><path d="M 1.3125 -0.109375 C 1.3125 0.0234375 1.25 0.09375 1.125 0.09375 C 1.007812 0.09375 0.929688 0.03125 0.890625 -0.09375 L 0.546875 -1 L 0.15625 -2 C 0.144531 -2.039062 0.140625 -2.078125 0.140625 -2.109375 C 0.140625 -2.160156 0.160156 -2.207031 0.203125 -2.25 C 0.242188 -2.300781 0.296875 -2.328125 0.359375 -2.328125 C 0.453125 -2.328125 0.515625 -2.28125 0.546875 -2.1875 L 1.109375 -0.65625 C 1.222656 -0.882812 1.363281 -1.222656 1.53125 -1.671875 C 1.5625 -1.785156 1.625 -1.953125 1.71875 -2.171875 C 1.757812 -2.265625 1.820312 -2.3125 1.90625 -2.3125 C 1.96875 -2.3125 2.019531 -2.289062 2.0625 -2.25 C 2.101562 -2.207031 2.125 -2.15625 2.125 -2.09375 C 2.125 -2.039062 2.003906 -1.726562 1.765625 -1.15625 Z M 1.3125 -0.109375" style="stroke:none"/></g></g><g style="fill:#f58d4b;fill-opacity:1;"><g transform="translate(43.703193, 33.412566)"><path d="M 1.328125 0.09375 C 0.992188 0.09375 0.726562 0.015625 0.53125 -0.140625 C 0.300781 -0.328125 0.1875 -0.585938 0.1875 -0.921875 C 0.1875 -1.296875 0.28125 -1.613281 0.46875 -1.875 C 0.664062 -2.15625 0.929688 -2.296875 1.265625 -2.296875 C 1.515625 -2.296875 1.71875 -2.253906 1.875 -2.171875 C 2.0625 -2.066406 2.15625 -1.910156 2.15625 -1.703125 C 2.15625 -1.554688 2.070312 -1.425781 1.90625 -1.3125 C 1.832031 -1.257812 1.675781 -1.175781 1.4375 -1.0625 L 0.59375 -0.65625 C 0.675781 -0.539062 0.78125 -0.453125 0.90625 -0.390625 C 1.03125 -0.328125 1.171875 -0.296875 1.328125 -0.296875 C 1.429688 -0.296875 1.550781 -0.316406 1.6875 -0.359375 C 1.863281 -0.398438 1.972656 -0.457031 2.015625 -0.53125 C 2.066406 -0.613281 2.125 -0.65625 2.1875 -0.65625 C 2.238281 -0.65625 2.28125 -0.632812 2.3125 -0.59375 C 2.351562 -0.5625 2.375 -0.519531 2.375 -0.46875 C 2.375 -0.300781 2.242188 -0.160156 1.984375 -0.046875 C 1.765625 0.046875 1.546875 0.09375 1.328125 0.09375 Z M 1.265625 -1.90625 C 1.085938 -1.90625 0.9375 -1.832031 0.8125 -1.6875 C 0.695312 -1.550781 0.613281 -1.34375 0.5625 -1.0625 L 1.234375 -1.390625 C 1.492188 -1.515625 1.679688 -1.625 1.796875 -1.71875 C 1.671875 -1.84375 1.492188 -1.90625 1.265625 -1.90625 Z M 1.265625 -1.90625" style="stroke:none"/></g></g><g style="fill:#323232;fill-opacity:1;"><g transform="translate(46.168123, 33.412566)"><path d="" style="stroke:none"/></g></g><g style="fill:#323232;fill-opacity:1;"><g transform="translate(47.512452, 33.412566)"><path d="M 0.71875 -2.78125 C 0.65625 -2.78125 0.597656 -2.804688 0.546875 -2.859375 C 0.492188 -2.910156 0.46875 -2.96875 0.46875 -3.03125 C 0.46875 -3.101562 0.492188 -3.164062 0.546875 -3.21875 C 0.597656 -3.269531 0.65625 -3.296875 0.71875 -3.296875 C 0.789062 -3.296875 0.851562 -3.269531 0.90625 -3.21875 C 0.957031 -3.164062 0.984375 -3.101562 0.984375 -3.03125 C 0.984375 -2.96875 0.957031 -2.910156 0.90625 -2.859375 C 0.851562 -2.804688 0.789062 -2.78125 0.71875 -2.78125 Z M 0.828125 -1 C 0.828125 -0.90625 0.828125 -0.769531 0.828125 -0.59375 C 0.835938 -0.425781 0.84375 -0.296875 0.84375 -0.203125 C 0.84375 -0.140625 0.820312 -0.0859375 0.78125 -0.046875 C 0.738281 -0.00390625 0.6875 0.015625 0.625 0.015625 C 0.5625 0.015625 0.507812 -0.00390625 0.46875 -0.046875 C 0.425781 -0.0859375 0.40625 -0.140625 0.40625 -0.203125 C 0.40625 -0.296875 0.398438 -0.425781 0.390625 -0.59375 C 0.390625 -0.769531 0.390625 -0.90625 0.390625 -1 C 0.390625 -1.132812 0.394531 -1.304688 0.40625 -1.515625 C 0.425781 -1.722656 0.4375 -1.894531 0.4375 -2.03125 C 0.4375 -2.09375 0.457031 -2.144531 0.5 -2.1875 C 0.539062 -2.226562 0.59375 -2.25 0.65625 -2.25 C 0.71875 -2.25 0.769531 -2.226562 0.8125 -2.1875 C 0.851562 -2.144531 0.875 -2.09375 0.875 -2.03125 C 0.875 -1.894531 0.863281 -1.722656 0.84375 -1.515625 C 0.832031 -1.304688 0.828125 -1.132812 0.828125 -1 Z M 0.828125 -1" style="stroke:none"/></g></g><g style="fill:#323232;fill-opacity:1;"><g transform="translate(48.77331, 33.412566)"><path d="M 1.78125 -1.875 C 1.75 -1.875 1.710938 -1.875 1.671875 -1.875 C 1.628906 -1.875 1.59375 -1.875 1.5625 -1.875 C 1.519531 -1.875 1.421875 -1.863281 1.265625 -1.84375 L 1.296875 -0.546875 L 1.296875 -0.453125 L 1.3125 -0.34375 C 1.3125 -0.0195312 1.234375 0.140625 1.078125 0.140625 C 1.015625 0.140625 0.960938 0.117188 0.921875 0.078125 C 0.878906 0.046875 0.859375 0 0.859375 -0.0625 C 0.859375 -0.113281 0.859375 -0.195312 0.859375 -0.3125 C 0.867188 -0.425781 0.875 -0.507812 0.875 -0.5625 L 0.828125 -1.84375 C 0.722656 -1.84375 0.5625 -1.851562 0.34375 -1.875 C 0.207031 -1.894531 0.140625 -1.96875 0.140625 -2.09375 C 0.140625 -2.15625 0.160156 -2.207031 0.203125 -2.25 C 0.242188 -2.300781 0.296875 -2.328125 0.359375 -2.328125 L 0.8125 -2.28125 C 0.8125 -2.351562 0.804688 -2.453125 0.796875 -2.578125 C 0.796875 -2.703125 0.796875 -2.796875 0.796875 -2.859375 C 0.796875 -2.921875 0.816406 -2.96875 0.859375 -3 C 0.898438 -3.039062 0.953125 -3.0625 1.015625 -3.0625 C 1.148438 -3.0625 1.226562 -2.957031 1.25 -2.75 C 1.25 -2.695312 1.25 -2.628906 1.25 -2.546875 L 1.25 -2.28125 C 1.425781 -2.3125 1.53125 -2.328125 1.5625 -2.328125 C 1.707031 -2.328125 1.804688 -2.316406 1.859375 -2.296875 C 1.941406 -2.265625 1.984375 -2.195312 1.984375 -2.09375 C 1.984375 -2.03125 1.960938 -1.976562 1.921875 -1.9375 C 1.890625 -1.894531 1.84375 -1.875 1.78125 -1.875 Z M 1.78125 -1.875" style="stroke:none"/></g></g><g style="fill:#323232;fill-opacity:1;"><g transform="translate(50.893044, 33.412566)"><path d="" style="stroke:none"/></g></g><g style="fill:#323232;fill-opacity:1;"><g transform="translate(52.237373, 33.412566)"><path d="M 2.140625 0.140625 C 2.035156 0.140625 1.96875 0.0820312 1.9375 -0.03125 C 1.90625 -0.15625 1.875 -0.328125 1.84375 -0.546875 C 1.820312 -0.753906 1.8125 -0.925781 1.8125 -1.0625 C 1.8125 -1.101562 1.8125 -1.160156 1.8125 -1.234375 C 1.8125 -1.316406 1.8125 -1.375 1.8125 -1.40625 C 1.8125 -1.6875 1.742188 -1.828125 1.609375 -1.828125 C 1.421875 -1.828125 1.253906 -1.742188 1.109375 -1.578125 C 1.035156 -1.484375 0.9375 -1.316406 0.8125 -1.078125 C 0.8125 -0.515625 0.785156 -0.1875 0.734375 -0.09375 C 0.691406 0 0.628906 0.046875 0.546875 0.046875 C 0.484375 0.046875 0.425781 0.0234375 0.375 -0.015625 C 0.332031 -0.0546875 0.3125 -0.101562 0.3125 -0.15625 C 0.3125 -0.175781 0.320312 -0.210938 0.34375 -0.265625 C 0.351562 -0.296875 0.359375 -0.398438 0.359375 -0.578125 L 0.375 -0.90625 L 0.375 -2.515625 C 0.382812 -2.703125 0.390625 -2.828125 0.390625 -2.890625 C 0.390625 -2.960938 0.378906 -3.03125 0.359375 -3.09375 C 0.347656 -3.164062 0.34375 -3.238281 0.34375 -3.3125 C 0.34375 -3.375 0.363281 -3.421875 0.40625 -3.453125 C 0.457031 -3.492188 0.507812 -3.515625 0.5625 -3.515625 C 0.6875 -3.515625 0.757812 -3.453125 0.78125 -3.328125 C 0.800781 -3.179688 0.8125 -3.050781 0.8125 -2.9375 C 0.8125 -2.789062 0.804688 -2.632812 0.796875 -2.46875 C 0.785156 -2.300781 0.78125 -2.140625 0.78125 -1.984375 L 0.796875 -1.78125 C 0.910156 -1.945312 1.035156 -2.066406 1.171875 -2.140625 C 1.304688 -2.222656 1.453125 -2.265625 1.609375 -2.265625 C 1.859375 -2.265625 2.023438 -2.1875 2.109375 -2.03125 C 2.171875 -1.914062 2.207031 -1.726562 2.21875 -1.46875 L 2.234375 -1.046875 L 2.28125 -0.59375 C 2.300781 -0.414062 2.328125 -0.265625 2.359375 -0.140625 C 2.367188 -0.109375 2.375 -0.0859375 2.375 -0.078125 C 2.375 -0.015625 2.347656 0.0351562 2.296875 0.078125 C 2.253906 0.117188 2.203125 0.140625 2.140625 0.140625 Z M 2.140625 0.140625" style="stroke:none"/></g></g><g style="fill:#323232;fill-opacity:1;"><g transform="translate(54.83597, 33.412566)"><path d="M 1.328125 0.09375 C 0.992188 0.09375 0.726562 0.015625 0.53125 -0.140625 C 0.300781 -0.328125 0.1875 -0.585938 0.1875 -0.921875 C 0.1875 -1.296875 0.28125 -1.613281 0.46875 -1.875 C 0.664062 -2.15625 0.929688 -2.296875 1.265625 -2.296875 C 1.515625 -2.296875 1.71875 -2.253906 1.875 -2.171875 C 2.0625 -2.066406 2.15625 -1.910156 2.15625 -1.703125 C 2.15625 -1.554688 2.070312 -1.425781 1.90625 -1.3125 C 1.832031 -1.257812 1.675781 -1.175781 1.4375 -1.0625 L 0.59375 -0.65625 C 0.675781 -0.539062 0.78125 -0.453125 0.90625 -0.390625 C 1.03125 -0.328125 1.171875 -0.296875 1.328125 -0.296875 C 1.429688 -0.296875 1.550781 -0.316406 1.6875 -0.359375 C 1.863281 -0.398438 1.972656 -0.457031 2.015625 -0.53125 C 2.066406 -0.613281 2.125 -0.65625 2.1875 -0.65625 C 2.238281 -0.65625 2.28125 -0.632812 2.3125 -0.59375 C 2.351562 -0.5625 2.375 -0.519531 2.375 -0.46875 C 2.375 -0.300781 2.242188 -0.160156 1.984375 -0.046875 C 1.765625 0.046875 1.546875 0.09375 1.328125 0.09375 Z M 1.265625 -1.90625 C 1.085938 -1.90625 0.9375 -1.832031 0.8125 -1.6875 C 0.695312 -1.550781 0.613281 -1.34375 0.5625 -1.0625 L 1.234375 -1.390625 C 1.492188 -1.515625 1.679688 -1.625 1.796875 -1.71875 C 1.671875 -1.84375 1.492188 -1.90625 1.265625 -1.90625 Z M 1.265625 -1.90625" style="stroke:none"/></g></g><g style="fill:#323232;fill-opacity:1;"><g transform="translate(57.300574, 33.412566)"><path d="M 2.015625 -1.625 C 2.003906 -1.4375 1.929688 -1.34375 1.796875 -1.34375 C 1.671875 -1.34375 1.609375 -1.414062 1.609375 -1.5625 C 1.609375 -1.59375 1.601562 -1.644531 1.59375 -1.71875 L 1.59375 -1.90625 C 1.363281 -1.875 1.175781 -1.804688 1.03125 -1.703125 C 0.90625 -1.609375 0.800781 -1.46875 0.71875 -1.28125 L 0.71875 -0.078125 C 0.71875 0.0664062 0.644531 0.140625 0.5 0.140625 C 0.375 0.140625 0.3125 0.0664062 0.3125 -0.078125 L 0.3125 -1.625 C 0.3125 -1.664062 0.3125 -1.734375 0.3125 -1.828125 C 0.3125 -1.929688 0.3125 -2.003906 0.3125 -2.046875 C 0.3125 -2.203125 0.378906 -2.28125 0.515625 -2.28125 C 0.648438 -2.28125 0.722656 -2.15625 0.734375 -1.90625 C 1.015625 -2.175781 1.320312 -2.3125 1.65625 -2.3125 C 1.78125 -2.3125 1.867188 -2.265625 1.921875 -2.171875 C 1.984375 -2.085938 2.015625 -1.957031 2.015625 -1.78125 C 2.015625 -1.695312 2.015625 -1.644531 2.015625 -1.625 Z M 2.015625 -1.625" style="stroke:none"/></g></g><g style="fill:#323232;fill-opacity:1;"><g transform="translate(59.462044, 33.412566)"><path d="M 1.328125 0.09375 C 0.992188 0.09375 0.726562 0.015625 0.53125 -0.140625 C 0.300781 -0.328125 0.1875 -0.585938 0.1875 -0.921875 C 0.1875 -1.296875 0.28125 -1.613281 0.46875 -1.875 C 0.664062 -2.15625 0.929688 -2.296875 1.265625 -2.296875 C 1.515625 -2.296875 1.71875 -2.253906 1.875 -2.171875 C 2.0625 -2.066406 2.15625 -1.910156 2.15625 -1.703125 C 2.15625 -1.554688 2.070312 -1.425781 1.90625 -1.3125 C 1.832031 -1.257812 1.675781 -1.175781 1.4375 -1.0625 L 0.59375 -0.65625 C 0.675781 -0.539062 0.78125 -0.453125 0.90625 -0.390625 C 1.03125 -0.328125 1.171875 -0.296875 1.328125 -0.296875 C 1.429688 -0.296875 1.550781 -0.316406 1.6875 -0.359375 C 1.863281 -0.398438 1.972656 -0.457031 2.015625 -0.53125 C 2.066406 -0.613281 2.125 -0.65625 2.1875 -0.65625 C 2.238281 -0.65625 2.28125 -0.632812 2.3125 -0.59375 C 2.351562 -0.5625 2.375 -0.519531 2.375 -0.46875 C 2.375 -0.300781 2.242188 -0.160156 1.984375 -0.046875 C 1.765625 0.046875 1.546875 0.09375 1.328125 0.09375 Z M 1.265625 -1.90625 C 1.085938 -1.90625 0.9375 -1.832031 0.8125 -1.6875 C 0.695312 -1.550781 0.613281 -1.34375 0.5625 -1.0625 L 1.234375 -1.390625 C 1.492188 -1.515625 1.679688 -1.625 1.796875 -1.71875 C 1.671875 -1.84375 1.492188 -1.90625 1.265625 -1.90625 Z M 1.265625 -1.90625" style="stroke:none"/></g></g><g style="fill:#323232;fill-opacity:1;"><g transform="translate(61.926646, 33.412566)"><path d="M 0.734375 -3.328125 L 0.734375 -0.890625 C 0.734375 -0.753906 0.664062 -0.6875 0.53125 -0.6875 C 0.40625 -0.6875 0.34375 -0.753906 0.34375 -0.890625 C 0.34375 -0.941406 0.335938 -1.023438 0.328125 -1.140625 C 0.328125 -1.265625 0.328125 -1.359375 0.328125 -1.421875 C 0.328125 -1.628906 0.328125 -1.945312 0.328125 -2.375 C 0.335938 -2.800781 0.34375 -3.117188 0.34375 -3.328125 C 0.34375 -3.460938 0.40625 -3.53125 0.53125 -3.53125 C 0.664062 -3.53125 0.734375 -3.460938 0.734375 -3.328125 Z M 0.734375 -0.046875 C 0.734375 0.00390625 0.710938 0.046875 0.671875 0.078125 C 0.628906 0.117188 0.582031 0.140625 0.53125 0.140625 C 0.46875 0.140625 0.40625 0.101562 0.34375 0.03125 C 0.289062 -0.0390625 0.265625 -0.109375 0.265625 -0.171875 C 0.265625 -0.222656 0.285156 -0.265625 0.328125 -0.296875 C 0.367188 -0.335938 0.414062 -0.359375 0.46875 -0.359375 C 0.53125 -0.359375 0.585938 -0.320312 0.640625 -0.25 C 0.703125 -0.175781 0.734375 -0.109375 0.734375 -0.046875 Z M 0.734375 -0.046875" style="stroke:none"/></g></g></g></svg>