<svg xmlns="http://www.w3.org/2000/svg" version="1.1" viewBox="1061.86 984.91 1291.46 401.42">
<path d="M0 0 C0.89203125 0.17692383 1.7840625 0.35384766 2.703125 0.53613281 C26.70492675 5.44328084 48.23150347 15.11709919 67 31 C67.51788086 31.43425293 68.03576172 31.86850586 68.56933594 32.31591797 C80.43686295 42.35964754 92.50465014 55.34959202 94.2734375 71.49609375 C95.30025765 101.23438489 79.29441145 132.52153476 59.51953125 153.796875 C40.37809596 173.82837572 15.50653508 188.13083075 -12 193 C-13.66657525 193.01745586 -15.33345093 193.01979852 -17 193 C-18.91531942 182.80074594 -19.94738648 172.56078929 -20.9453125 162.2421875 C-21.12159868 160.44481306 -21.29810631 158.64746033 -21.474823 156.85012817 C-21.84220655 153.10363168 -22.20658394 149.35685818 -22.56884766 145.60986328 C-23.03120403 140.83061852 -23.50164838 136.05220991 -23.97441292 131.27398491 C-24.33990794 127.56980565 -24.70082343 123.86519072 -25.06042099 120.16043472 C-25.23198695 118.39900593 -25.40500489 116.63771788 -25.57956314 114.8765831 C-26.43486145 106.22477784 -27.23775644 97.70630917 -27 89 C-25.75605469 88.56429688 -24.51210937 88.12859375 -23.23046875 87.6796875 C-2.50266165 80.9994692 -2.50266165 80.9994692 12.234375 66.015625 C14.02265276 61.30771008 14.72206762 56.74979175 13.4296875 51.828125 C9.91617444 44.69043706 2.11019064 41.63374621 -5 39 C-9.2997198 37.7115 -13.57473108 36.74039248 -18 36 C-18.99773438 35.81824219 -19.99546875 35.63648438 -21.0234375 35.44921875 C-44.67825376 32.20838901 -74.1602111 34.09383952 -94.19140625 48.46484375 C-97.71446432 51.45525805 -99.52014283 54.52843802 -100.9375 58.875 C-101.05259969 64.62998442 -99.07528849 69.16439857 -95.3125 73.5 C-91.73282305 76.80722797 -87.68593429 78.98765635 -83.375 81.1875 C-82.74891846 81.50847656 -82.12283691 81.82945313 -81.4777832 82.16015625 C-77.16976047 84.24393689 -72.79759591 85.7322284 -68.21728516 87.1184082 C-67.05153961 87.47256302 -65.88579407 87.82671783 -64.6847229 88.19160461 C-63.79876434 88.45837509 -62.91280579 88.72514557 -62 89 C-62.08769653 90.14290497 -62.17539307 91.28580994 -62.26574707 92.46334839 C-63.0938104 103.26158592 -63.91786889 114.06012269 -64.73806 124.85896111 C-65.15980202 130.41003522 -65.58292864 135.96099639 -66.00927734 141.51171875 C-66.42107398 146.87366425 -66.82915802 152.23588083 -67.23472595 157.59830093 C-67.38969666 159.63879495 -67.54597953 161.67918977 -67.70362854 163.71947861 C-67.9250896 166.58860883 -68.14177969 169.45806406 -68.35742188 172.32763672 C-68.42287704 173.16130264 -68.48833221 173.99496857 -68.55577087 174.85389709 C-68.73192768 177.23537993 -68.87715007 179.61518726 -69 182 C-69.04774063 182.90270756 -69.09548126 183.80541512 -69.14466858 184.73547745 C-69.17205612 185.63069988 -69.19944366 186.52592232 -69.22766113 187.44827271 C-69.25666756 188.26011583 -69.28567398 189.07195896 -69.31555939 189.9084034 C-69.17373656 192.41787746 -69.17373656 192.41787746 -66 194.5 C-65.01 194.995 -64.02 195.49 -63 196 C-63 196.66 -63 197.32 -63 198 C-87.53840229 190.8615557 -112.38848952 175.46295434 -130.8828125 157.99609375 C-132.83918016 156.15162166 -134.86073386 154.45561717 -136.9375 152.75 C-155.5558156 136.37936838 -168.20263737 113.47178782 -170.18457031 88.69238281 C-171.24725151 70.12222007 -167.58157606 51.51234366 -154.98901367 37.11328125 C-152.7325533 34.66025434 -150.38830501 32.32572933 -148 30 C-147.33097656 29.33355469 -146.66195312 28.66710938 -145.97265625 27.98046875 C-135.83240937 18.48336649 -121.67831326 10.70944224 -108 8 C-106.11412883 7.25615932 -104.24000225 6.48221732 -102.375 5.6875 C-93.80535902 2.34466372 -85.04486114 0.56574591 -76 -1 C-75.33033203 -1.12004395 -74.66066406 -1.24008789 -73.97070312 -1.36376953 C-50.35970183 -5.38483092 -23.42942777 -4.71690582 0 0 Z " fill="#E38653" transform="translate(2259,1117)"/>
<path d="M0 0 C7.21099267 5.18932951 13.54097542 11.2522356 19.76928711 17.56347656 C21.19134532 19.00389496 22.62134739 20.43604474 24.05273438 21.8671875 C28.69348154 26.5370404 33.19077479 31.2656146 37.4777832 36.26171875 C39.70362898 38.80350254 42.08244886 41.13933242 44.5 43.5 C48.25493051 47.19871515 51.8108318 50.99743535 55.23046875 55.0078125 C58.63922859 58.84548914 62.33459329 62.40939751 66 66 C76.71273559 56.91746331 86.75723875 47.35680802 96.625 37.375 C103.56948286 30.35073916 110.46727316 23.40052125 118 17 C119.56508768 15.54444412 121.12798268 14.08652252 122.6875 12.625 C132.10325502 4.11432531 141.51602446 -3.65115242 154.6015625 -3.4453125 C161.22679529 -2.57717855 166.42131947 1.06078794 171 5.8125 C175.04636889 12.26140042 175.30673624 19.6825451 175.4140625 27.13671875 C175.43351929 28.02037613 175.45297607 28.90403351 175.47302246 29.81446838 C175.5341519 32.77204966 175.58038678 35.72962612 175.625 38.6875 C175.6525235 40.24724548 175.6525235 40.24724548 175.68060303 41.83850098 C176.59917419 94.07647635 177.33362016 146.71001075 174.125 198.875 C174.02566162 200.60568726 174.02566162 200.60568726 173.92431641 202.37133789 C173.44369387 209.05240106 172.96643643 214.9421949 168.09765625 219.9609375 C167.09025391 220.66089844 167.09025391 220.66089844 166.0625 221.375 C165.39347656 221.85710937 164.72445313 222.33921875 164.03515625 222.8359375 C158.33224491 226.09787143 151.3513433 225.64898915 145 225 C139.24663401 223.15371344 133.90558679 220.46250317 131 215 C124.72381777 197.62895535 125.68506225 177.36038666 125.5859375 159.171875 C125.56717086 156.95842817 125.54759365 154.74498809 125.5272522 152.53155518 C125.47650442 146.77791366 125.43657651 141.02424908 125.39910889 135.27050781 C125.35870411 129.37038748 125.3077806 123.47035822 125.2578125 117.5703125 C125.16173484 106.04693952 125.07711794 94.5235144 125 83 C124.59625153 83.4081897 124.19250305 83.81637939 123.77651978 84.23693848 C119.53158311 88.52649909 115.27932362 92.80870314 111.02294922 97.08691406 C109.44037215 98.67948092 107.85960292 100.27384658 106.28076172 101.87011719 C81.2342033 127.18599344 81.2342033 127.18599344 71.5 127.5 C60.32266676 127.25553828 52.53610733 121.17406605 44.765625 113.66015625 C42.61160616 111.5882822 40.43586182 109.61591156 38.1796875 107.66015625 C33.26247818 103.38827277 28.54918069 98.9116514 23.82421875 94.4296875 C22.82455078 93.48609375 22.82455078 93.48609375 21.8046875 92.5234375 C20.92272705 91.6869165 20.92272705 91.6869165 20.02294922 90.83349609 C18.33619654 89.30471108 16.62449335 87.83888789 14.87356567 86.38540649 C13.925289 85.59822235 12.97701233 84.81103821 12 84 C11.98969254 85.08231903 11.97938507 86.16463806 11.96876526 87.27975464 C11.86996385 97.6024318 11.76715414 107.92506275 11.66066074 118.2476635 C11.60606605 123.55148543 11.55276595 128.85531306 11.50268555 134.15917969 C10.77284085 211.11669291 10.77284085 211.11669291 6.37109375 217.28125 C4.35354018 219.20799392 2.41107945 220.60501832 0 222 C-0.8971875 222.53367187 -0.8971875 222.53367187 -1.8125 223.078125 C-8.6426418 226.3165543 -17.55119526 226.18549811 -24.7265625 224.2734375 C-29.35376522 222.36993939 -32.87408441 219.97843803 -36 216 C-37.94541552 211.27978686 -38.41028611 206.75230331 -38.61691284 201.70368958 C-38.6545285 200.91471592 -38.69214416 200.12574226 -38.73089969 199.31286031 C-39.09237171 191.12258033 -39.1411002 182.93774784 -39.12939453 174.7409668 C-39.13075468 173.10425274 -39.13253801 171.46753899 -39.13470459 169.83082581 C-39.13920428 165.44685332 -39.13752109 161.06290477 -39.1343255 156.67893195 C-39.13176497 152.05929492 -39.13414941 147.43965971 -39.13571167 142.82002258 C-39.13752179 135.07296385 -39.13515667 127.3259147 -39.13037109 119.57885742 C-39.12492108 110.65373172 -39.12670118 101.72862885 -39.1321975 92.80350369 C-39.13675027 85.09854078 -39.1373689 77.39358469 -39.13475883 69.68862087 C-39.13320917 65.10482046 -39.13296621 60.52103076 -39.13629532 55.93723106 C-39.13920598 51.63033044 -39.13714025 47.32345901 -39.13140106 43.01656151 C-39.13009089 41.44653878 -39.1304375 39.87651355 -39.13266373 38.30649185 C-39.16803919 10.80119755 -39.16803919 10.80119755 -33.7421875 4.6484375 C-23.79156201 -4.76672832 -12.07238982 -7.10530924 0 0 Z " fill="#313131" transform="translate(1101,1076)"/>
<path d="M0 0 C2.00564794 1.20338876 3.63153881 2.44186395 5.3203125 4.0546875 C6.1040625 4.7971875 6.8878125 5.5396875 7.6953125 6.3046875 C14.26835395 17.42829611 12.45872472 33.87660349 12.7578125 46.3046875 C13.03793638 56.48619341 13.43315665 66.64573635 14.1953125 76.8046875 C14.29477173 78.25536621 14.29477173 78.25536621 14.39624023 79.73535156 C15.33803827 91.27815698 17.17139166 101.82679327 26.23046875 109.71875 C32.36028614 113.63725009 40.85908376 112.0847234 47.62109375 110.77734375 C53.57692763 109.18280067 58.20851467 105.35585737 61.3203125 100.0546875 C67.73716236 83.98490401 66.66613494 65.01202899 66.85205078 48.03076172 C67.26114929 13.97187055 67.26114929 13.97187055 75.734375 4.46875 C80.92151226 -0.33004543 87.21002455 -1.43672345 94.046875 -1.26171875 C99.12422999 -0.55507656 102.95440073 1.7626088 106.6328125 5.2421875 C113.88328921 17.32631536 113.70759153 32.83086317 114.3984375 46.515625 C114.43966988 47.30008373 114.48090225 48.08454247 114.52338409 48.89277267 C115.52426069 68.19340539 115.81429169 87.50409148 116.00830078 106.82714844 C116.05805373 111.75124789 116.12535988 116.67494163 116.19704819 121.59876442 C116.2512159 125.48194874 116.2949221 129.36520132 116.33576202 133.2485466 C116.35626238 135.06383838 116.38008796 136.87909655 116.40770721 138.69429398 C116.81219135 166.2113454 114.37007603 191.55884538 95.3203125 213.0546875 C94.74023438 213.74046875 94.16015625 214.42625 93.5625 215.1328125 C80.99736344 228.94902327 62.2853227 235.35723482 44.04296875 236.3125 C22.22918144 237.04887877 -0.05785434 232.38622523 -16.56640625 217.44140625 C-25.5702773 208.89056956 -32.46654935 199.85451322 -33.0546875 186.9921875 C-32.31968015 179.27461037 -30.18323455 173.55823455 -24.6796875 168.0546875 C-18.96416473 164.01200066 -13.52035993 163.49603258 -6.6796875 164.0546875 C0.08453111 165.5202682 4.2991791 169.38736696 9.38818359 173.85253906 C18.79638108 182.06183998 27.67766018 186.65636607 40.39453125 186.35546875 C48.08561189 185.56479691 52.63013229 181.40801657 57.4921875 175.63671875 C61.70998392 169.67953192 65.47049987 162.2311068 65.41796875 154.82421875 C65.41474609 154.02177734 65.41152344 153.21933594 65.40820312 152.39257812 C65.39982422 151.55919922 65.39144531 150.72582031 65.3828125 149.8671875 C65.37830078 149.02220703 65.37378906 148.17722656 65.36914062 147.30664062 C65.35736653 145.22262595 65.3394314 143.13864773 65.3203125 141.0546875 C64.72605469 141.50199219 64.13179687 141.94929688 63.51953125 142.41015625 C49.32942245 152.76032892 34.81986645 157.17511259 17.2109375 154.76611328 C1.89932609 152.16411727 -12.94843493 146.21665842 -22.60546875 133.5234375 C-35.49613325 114.31165486 -36.82600187 92.94456462 -36.84765625 70.45703125 C-36.85098465 69.22030167 -36.85431305 67.98357208 -36.85774231 66.70936584 C-36.86276404 64.11703865 -36.86515212 61.5247051 -36.86499023 58.93237305 C-36.86718402 54.99842622 -36.88541103 51.06475708 -36.90429688 47.13085938 C-36.90723048 44.59375094 -36.9092155 42.0566412 -36.91015625 39.51953125 C-36.91734177 38.36186752 -36.92452728 37.2042038 -36.93193054 36.01145935 C-36.86726232 12.5743638 -36.86726232 12.5743638 -29.296875 4.59765625 C-21.94795948 -2.07792931 -9.26325331 -3.2677949 0 0 Z " fill="#313131" transform="translate(1338.6796875,1149.9453125)"/>
<path d="M0 0 C1.00619888 -0.0033284 2.01239777 -0.0066568 3.04908752 -0.01008606 C5.16935779 -0.01511941 7.28963588 -0.0174955 9.40991211 -0.01733398 C12.58916958 -0.01950413 15.76807006 -0.03765373 18.94726562 -0.05664062 C28.58044553 -0.08395521 38.13354948 0.05413475 47.72265625 1.0390625 C48.83869484 1.15251762 48.83869484 1.15251762 49.97727966 1.26826477 C67.98421181 3.3698911 83.61661465 12.55276672 95.671875 25.91796875 C111.363146 45.79537918 117.33628099 69.0464292 114.44140625 94.10546875 C112.09794833 112.25919784 104.73300736 128.64198773 91.19140625 141.16796875 C90.26328125 142.09609375 89.33515625 143.02421875 88.37890625 143.98046875 C70.28569605 159.17563229 45.06535833 162.56478563 22.37890625 162.29296875 C20.89649051 162.28290527 19.41406806 162.27378545 17.93164062 162.265625 C14.35141951 162.2439095 10.77145817 162.20957121 7.19140625 162.16796875 C7.17158691 163.41819824 7.15176758 164.66842773 7.13134766 165.95654297 C7.05476209 170.63463069 6.96613001 175.31242864 6.87402344 179.99023438 C6.835951 182.0074284 6.80106193 184.0246853 6.76953125 186.04199219 C6.7234048 188.95660747 6.66549329 191.87079788 6.60546875 194.78515625 C6.59391754 195.67411591 6.58236633 196.56307556 6.57046509 197.47897339 C6.35369139 206.86286819 5.44148854 217.48399536 -1.2265625 224.703125 C-7.63206219 230.35116201 -13.90305526 230.69679142 -22.12890625 230.484375 C-28.29911945 229.95381527 -31.9128456 228.11360501 -36.18359375 223.73046875 C-48.66252526 204.05215367 -42.9614679 167.65471499 -42.94291925 145.14451098 C-42.94034731 141.03425202 -42.94274601 136.92399504 -42.94430542 132.81373596 C-42.94611139 125.92782177 -42.94376055 119.0419184 -42.93896484 112.15600586 C-42.93350572 104.22656597 -42.93530317 96.29715173 -42.94079125 88.36771244 C-42.94534421 81.51110505 -42.94596285 74.65450533 -42.94335258 67.79789692 C-42.94180429 63.72334279 -42.94155631 59.64880069 -42.94488907 55.57424736 C-42.94780041 51.74992494 -42.94573281 47.92563537 -42.93999481 44.10131645 C-42.93868543 42.7082525 -42.93902987 41.31518574 -42.94125748 39.92212296 C-42.97800008 14.58954124 -42.97800008 14.58954124 -35.24609375 6.48046875 C-25.99028148 -0.7703061 -11.14585785 0.01321301 0 0 Z M7.19140625 50.16796875 C7.19140625 70.62796875 7.19140625 91.08796875 7.19140625 112.16796875 C34.96373638 112.5078341 34.96373638 112.5078341 58.5859375 99.9453125 C65.41922311 92.38048294 66.55463345 84.58041484 66.47265625 74.72265625 C65.97798964 68.47061991 63.86811003 64.21727337 59.94140625 59.41796875 C44.99905898 47.19241189 25.63684693 47.09372864 7.19140625 50.16796875 Z " fill="#313131" transform="translate(1525.80859375,1071.83203125)"/>
<path d="M0 0 C19.86705363 -0.83094141 39.36342887 7.9004689 54.2421875 20.4765625 C61.29264048 27.05623802 66.33528617 34.98801731 67.14453125 44.7578125 C67.34898783 50.71158803 67.10357806 56.00832169 63.9296875 61.1640625 C57.71524851 67.30146735 49.27810532 70.66715496 41.4921875 74.3515625 C40.11181737 75.01276454 38.73161112 75.6743088 37.3515625 76.33618164 C27.77443305 80.90893787 18.09430653 85.2186215 8.35375977 89.43212891 C-5.50070314 94.42235082 -5.50070314 94.42235082 -16.0703125 103.1640625 C-2.37784859 108.90606349 6.40879261 108.64943445 20.41796875 103.1953125 C27.59253372 100.44272629 34.1045052 100.67598229 41.1796875 103.7890625 C46.94668936 106.99943803 50.9608492 111.87447046 52.9296875 118.1640625 C53.76585836 126.35853689 54.08454451 134.71291063 49.7265625 141.984375 C41.91161623 151.46424461 30.7587867 155.44663411 18.9296875 157.1640625 C-7.80475664 158.60986826 -30.08602435 156.80071084 -51.0703125 138.1640625 C-51.76769531 137.56078125 -52.46507812 136.9575 -53.18359375 136.3359375 C-67.0730108 123.49834038 -75.17312122 102.94565646 -76.30859375 84.23828125 C-76.84264861 63.36722668 -70.8293366 44.8289103 -58.0703125 28.1640625 C-57.52375 27.4421875 -56.9771875 26.7203125 -56.4140625 25.9765625 C-44.0797394 10.92450719 -26.14737294 2.73014907 -7.0703125 0.5390625 C-4.71430614 0.34452986 -2.35656121 0.18674636 0 0 Z M-20.0703125 59.1640625 C-24.25920679 63.35295679 -27.00298926 68.38697878 -27.1484375 74.38671875 C-27.12265625 75.30324219 -27.096875 76.21976563 -27.0703125 77.1640625 C-11.17236527 71.0006622 4.39085033 64.1716357 19.9296875 57.1640625 C17.00285243 54.09954862 15.0454913 52.54339891 10.9296875 51.4140625 C9.66125 51.05054688 9.66125 51.05054688 8.3671875 50.6796875 C-1.63528094 48.56378072 -12.19282376 53.28957849 -20.0703125 59.1640625 Z " fill="#313131" transform="translate(1720.0703125,1146.8359375)"/>
<path d="M0 0 C5.24526071 4.57565296 9.2418681 10.0247594 10.3125 17.05078125 C10.72252335 24.26462958 8.86793004 31.72236567 4.05859375 37.21875 C-1.21829691 41.96114897 -4.79402575 43.33235101 -12 43 C-15.2890625 42.265625 -15.2890625 42.265625 -18.625 41.25 C-20.44837891 40.71246094 -20.44837891 40.71246094 -22.30859375 40.1640625 C-24.69067724 39.41288697 -27.05984633 38.61879525 -29.41015625 37.7734375 C-38.08310464 34.73428753 -44.25227462 34.35937834 -52.6953125 38.23828125 C-57.89988117 41.12021405 -63.1577615 44.61967399 -66 50 C-67.05384686 55.72188397 -67.18019151 61.34922327 -67.24609375 67.15625 C-67.27910003 69.17057615 -67.31231026 71.18489897 -67.34570312 73.19921875 C-67.39248054 76.32239897 -67.43680289 79.44557316 -67.47680664 82.56884766 C-67.62819291 93.8729604 -67.94356782 105.13428928 -68.84765625 116.40625 C-68.94958534 117.78387512 -68.94958534 117.78387512 -69.05357361 119.18933105 C-69.66503055 126.09983548 -70.5720491 133.68915787 -74.76171875 139.40234375 C-82.30182328 145.41301532 -88.35570171 147.63833521 -98.1015625 147.34375 C-103.98089451 146.64647073 -108.12719297 144.17617585 -112.3125 140.0625 C-130.9261003 115.74879987 -121.19967471 51.20999365 -117.69140625 22.47216797 C-116.22878946 11.89302461 -113.2832459 3.94378386 -104.74609375 -2.8125 C-99.59554389 -6.31533481 -94.03311278 -6.64640494 -88 -6 C-80.29886322 -4.30289764 -75.39143978 0.55998869 -70 6 C-69.21238281 5.40832031 -68.42476562 4.81664062 -67.61328125 4.20703125 C-47.0120806 -10.88009339 -22.28427651 -14.298004 0 0 Z " fill="#313131" transform="translate(1922,1155)"/>
<path d="M0 0 C3.89241844 5.13799234 4.37688085 11.83979507 3.5625 18.0625 C1.6573149 25.24914758 -2.31588031 29.95426473 -8.4375 34.0625 C-15.18726558 37.23886027 -23.7616878 36.44991313 -30.8203125 34.35546875 C-31.51898437 34.09378906 -32.21765625 33.83210938 -32.9375 33.5625 C-41.08136917 30.5440384 -49.9339164 30.0505337 -58.1484375 32.98046875 C-63.68561422 35.5978714 -69.16761419 39.18750144 -71.4375 45.0625 C-72.49844536 52.15228608 -72.65871238 59.33790008 -72.8671875 66.4921875 C-72.9409121 68.69272494 -73.01514766 70.89324532 -73.08984375 73.09375 C-73.20238534 76.50020381 -73.31159367 79.90663106 -73.41162109 83.31347656 C-73.75230194 94.7171448 -74.18470087 106.02288672 -75.859375 117.3203125 C-75.97803925 118.1233078 -76.09670349 118.9263031 -76.21896362 119.75363159 C-77.41121446 127.05851637 -79.59557215 133.06695442 -84.75 138.5 C-90.8342888 142.03737721 -95.79293942 143.77453709 -102.91015625 142.765625 C-108.60218616 141.18206181 -112.79986711 137.7863241 -116.8125 133.5625 C-121.12836956 124.26678094 -121.98300212 113.44171765 -122.625 103.3125 C-122.70395508 102.10150635 -122.78291016 100.8905127 -122.86425781 99.64282227 C-127.56046107 17.7083063 -127.56046107 17.7083063 -116.5625 -0.5625 C-111.71311656 -5.98239914 -106.49496872 -9.47816392 -99.125 -10.3125 C-90.77827028 -9.46368003 -85.13944361 -7.43971014 -79.2265625 -1.36328125 C-77.29742857 0.47799089 -77.29742857 0.47799089 -73.4375 0.0625 C-70.96572431 -1.56137337 -70.96572431 -1.56137337 -68.4375 -3.6875 C-48.36231831 -18.81080354 -18.82304878 -14.96191057 0 0 Z " fill="#313131" transform="translate(2072.4375,1159.9375)"/>
<path d="M0 0 C0 0.66 0 1.32 0 2 C-1.43070427 3.18344814 -2.86398586 4.36393816 -4.31103516 5.52734375 C-7.18137109 8.03007089 -9.41173334 10.96066633 -11.6875 14 C-12.19788818 14.6813501 -12.70827637 15.3627002 -13.23413086 16.06469727 C-21.26366494 27.14686321 -28.24565864 39.79174408 -32 53 C-32.30514526 54.06927734 -32.30514526 54.06927734 -32.61645508 55.16015625 C-34.16424009 61.25604798 -34.29962649 67.17215544 -34.25 73.4375 C-34.25773437 74.41009766 -34.26546875 75.38269531 -34.2734375 76.38476562 C-34.2054866 101.8153901 -21.55187166 123.58112387 -5.42724609 142.33935547 C-4.23554499 143.72593619 -3.06264736 145.1286491 -1.89453125 146.53515625 C1.38859929 150.43434332 4.90592795 153.81598489 8.796875 157.10546875 C11.26757034 159.23009152 13.6241255 161.45745013 16 163.6875 C25.26026039 172.1234813 35.34857914 179.9293275 46.375 185.9140625 C46.91125 186.27242187 47.4475 186.63078125 48 187 C48 187.66 48 188.32 48 189 C23.46159771 181.8615557 -1.38848952 166.46295434 -19.8828125 148.99609375 C-21.83918016 147.15162166 -23.86073386 145.45561717 -25.9375 143.75 C-44.5558156 127.37936838 -57.20263737 104.47178782 -59.18457031 79.69238281 C-60.24725151 61.12222007 -56.58157606 42.51234366 -43.98901367 28.11328125 C-41.7325533 25.66025434 -39.38830501 23.32572933 -37 21 C-36.33097656 20.33355469 -35.66195312 19.66710938 -34.97265625 18.98046875 C-27.24934957 11.74701239 -11.30312538 0 0 0 Z " fill="#B66A43" transform="translate(2148,1126)"/>
<path d="M0 0 C0.86625 0.7425 1.7325 1.485 2.625 2.25 C3.45 2.91 4.275 3.57 5.125 4.25 C18.1796677 19.91560124 18.93880789 41.61431173 17.40673828 61.01367188 C15.84476962 76.48512242 12.89804295 92.4406092 1.125 103.625 C-5.58045684 107.98354695 -11.35216011 109.90760983 -19.375 109.25 C-26.52854316 107.36509815 -31.43346303 104.56353976 -35.375 98.25 C-46.72819344 78.5603188 -45.89901562 51.72737272 -40.375 30.25 C-36.79288205 17.90312535 -32.10623269 5.88169211 -20.5390625 -0.8125 C-13.82746511 -3.88065881 -6.48172307 -3.36089344 0 0 Z M-23.375 20.25 C-30.21043244 31.50471505 -30.64758604 46.21627289 -30.75 59 C-30.76385742 60.02875244 -30.77771484 61.05750488 -30.79199219 62.11743164 C-30.72694666 72.82512321 -29.26743699 83.14711884 -21.625 91.0625 C-18.27516611 92.83046789 -15.11541296 93.43245917 -11.375 93.25 C-5.70097166 91.39126658 -3.84399396 88.85798016 -1.0625 83.625 C7.04630093 65.68212134 6.47874846 42.15047507 -0.1640625 23.8203125 C-2.21441454 19.46827495 -4.99563671 15.43968165 -9.375 13.25 C-15.83431442 12.0196544 -19.43203939 15.58092673 -23.375 20.25 Z " fill="#E48653" transform="translate(2261.375,987.75)"/>
<path d="M0 0 C5.937457 4.90485578 8.60947888 10.9102595 9.875 18.375 C10.12728151 21.41805667 10.21628868 24.44725288 10.25 27.5 C10.26385742 28.2518457 10.27771484 29.00369141 10.29199219 29.77832031 C10.23531544 36.58847862 8.84182681 42.12719793 4.25 47.375 C0.5726933 49.55414471 -1.65618649 50.30945272 -5.8828125 50.0390625 C-10.43530325 48.69076385 -12.74595208 45.30506357 -15.125 41.375 C-20.22159433 30.53118229 -22.2724564 17.88153289 -18.125 6.375 C-13.83674605 -0.73168235 -7.7861016 -4.04877283 0 0 Z " fill="#313131" transform="translate(2190.125,1040.625)"/>
<path d="M0 0 C3.0625 0.5 3.0625 0.5 5.375 2.4375 C8.00584684 7.21199983 8.63396075 11.5724347 7.5859375 16.94140625 C6.30122699 21.22612755 4.99017918 25.03117308 1.0625 27.5 C-2 27.5 -2 27.5 -4.9375 26.5 C-8.7802955 22.32545237 -9.08235595 18.00452603 -8.9375 12.5 C-7.79707363 6.78032312 -6.36726603 1.08378996 0 0 Z " fill="#313131" transform="translate(2248.9375,1041.5)"/>
</svg>